<mxfile host="Electron" agent="Mozilla/5.0 (Windows NT 10.0; Win64; x64) AppleWebKit/537.36 (KHTML, like Gecko) draw.io/26.2.2 Chrome/134.0.6998.178 Electron/35.1.2 Safari/537.36" version="26.2.2">
  <diagram name="Página-1" id="t9Ym5BQmfKaSZrqKgATk">
    <mxGraphModel dx="1190" dy="701" grid="1" gridSize="10" guides="1" tooltips="1" connect="1" arrows="1" fold="1" page="1" pageScale="1" pageWidth="827" pageHeight="1169" math="0" shadow="0">
      <root>
        <mxCell id="0" />
        <mxCell id="1" parent="0" />
        <mxCell id="FLL2FGJzJw59sxhkrGi6-3" style="edgeStyle=orthogonalEdgeStyle;rounded=0;orthogonalLoop=1;jettySize=auto;html=1;" edge="1" parent="1" source="FLL2FGJzJw59sxhkrGi6-1">
          <mxGeometry relative="1" as="geometry">
            <mxPoint x="200" y="245.0000000000001" as="targetPoint" />
          </mxGeometry>
        </mxCell>
        <mxCell id="FLL2FGJzJw59sxhkrGi6-1" value="" style="ellipse;whiteSpace=wrap;html=1;aspect=fixed;fillColor=#60a917;fontColor=#ffffff;strokeColor=#2D7600;" vertex="1" parent="1">
          <mxGeometry x="90" y="230" width="30" height="30" as="geometry" />
        </mxCell>
        <mxCell id="FLL2FGJzJw59sxhkrGi6-2" value="Recebe o faturamento do distribuidor" style="text;html=1;align=center;verticalAlign=middle;whiteSpace=wrap;rounded=0;" vertex="1" parent="1">
          <mxGeometry x="32.5" y="270" width="145" height="30" as="geometry" />
        </mxCell>
        <mxCell id="FLL2FGJzJw59sxhkrGi6-8" value="" style="edgeStyle=orthogonalEdgeStyle;rounded=0;orthogonalLoop=1;jettySize=auto;html=1;" edge="1" parent="1" source="FLL2FGJzJw59sxhkrGi6-4" target="FLL2FGJzJw59sxhkrGi6-7">
          <mxGeometry relative="1" as="geometry" />
        </mxCell>
        <mxCell id="FLL2FGJzJw59sxhkrGi6-4" value="Verificar o valor da nota fiscal" style="rounded=1;whiteSpace=wrap;html=1;" vertex="1" parent="1">
          <mxGeometry x="200" y="215" width="120" height="60" as="geometry" />
        </mxCell>
        <mxCell id="FLL2FGJzJw59sxhkrGi6-10" value="" style="edgeStyle=orthogonalEdgeStyle;rounded=0;orthogonalLoop=1;jettySize=auto;html=1;" edge="1" parent="1" source="FLL2FGJzJw59sxhkrGi6-7" target="FLL2FGJzJw59sxhkrGi6-9">
          <mxGeometry relative="1" as="geometry" />
        </mxCell>
        <mxCell id="FLL2FGJzJw59sxhkrGi6-7" value="Analisar o preço sugerido pelo fabricante" style="rounded=1;whiteSpace=wrap;html=1;" vertex="1" parent="1">
          <mxGeometry x="400" y="215" width="120" height="60" as="geometry" />
        </mxCell>
        <mxCell id="FLL2FGJzJw59sxhkrGi6-12" value="" style="edgeStyle=orthogonalEdgeStyle;rounded=0;orthogonalLoop=1;jettySize=auto;html=1;" edge="1" parent="1" source="FLL2FGJzJw59sxhkrGi6-9" target="FLL2FGJzJw59sxhkrGi6-11">
          <mxGeometry relative="1" as="geometry" />
        </mxCell>
        <mxCell id="FLL2FGJzJw59sxhkrGi6-13" value="Sim" style="edgeLabel;html=1;align=center;verticalAlign=middle;resizable=0;points=[];" vertex="1" connectable="0" parent="FLL2FGJzJw59sxhkrGi6-12">
          <mxGeometry x="0.2" y="2" relative="1" as="geometry">
            <mxPoint as="offset" />
          </mxGeometry>
        </mxCell>
        <mxCell id="FLL2FGJzJw59sxhkrGi6-15" value="" style="edgeStyle=orthogonalEdgeStyle;rounded=0;orthogonalLoop=1;jettySize=auto;html=1;" edge="1" parent="1" source="FLL2FGJzJw59sxhkrGi6-9" target="FLL2FGJzJw59sxhkrGi6-14">
          <mxGeometry relative="1" as="geometry" />
        </mxCell>
        <mxCell id="FLL2FGJzJw59sxhkrGi6-16" value="Não" style="edgeLabel;html=1;align=center;verticalAlign=middle;resizable=0;points=[];" vertex="1" connectable="0" parent="FLL2FGJzJw59sxhkrGi6-15">
          <mxGeometry x="-0.1778" y="2" relative="1" as="geometry">
            <mxPoint as="offset" />
          </mxGeometry>
        </mxCell>
        <mxCell id="FLL2FGJzJw59sxhkrGi6-9" value="Margem de lucro satisfatória?&amp;nbsp;" style="rhombus;whiteSpace=wrap;html=1;rounded=1;" vertex="1" parent="1">
          <mxGeometry x="405" y="345" width="110" height="105" as="geometry" />
        </mxCell>
        <mxCell id="FLL2FGJzJw59sxhkrGi6-22" value="" style="edgeStyle=orthogonalEdgeStyle;rounded=0;orthogonalLoop=1;jettySize=auto;html=1;" edge="1" parent="1" source="FLL2FGJzJw59sxhkrGi6-11" target="FLL2FGJzJw59sxhkrGi6-21">
          <mxGeometry relative="1" as="geometry" />
        </mxCell>
        <mxCell id="FLL2FGJzJw59sxhkrGi6-11" value="Aceitar sugestão e cadastrar preço&amp;nbsp;" style="whiteSpace=wrap;html=1;rounded=1;" vertex="1" parent="1">
          <mxGeometry x="400" y="552.5" width="120" height="60" as="geometry" />
        </mxCell>
        <mxCell id="FLL2FGJzJw59sxhkrGi6-18" value="" style="edgeStyle=orthogonalEdgeStyle;rounded=0;orthogonalLoop=1;jettySize=auto;html=1;" edge="1" parent="1" source="FLL2FGJzJw59sxhkrGi6-14" target="FLL2FGJzJw59sxhkrGi6-17">
          <mxGeometry relative="1" as="geometry" />
        </mxCell>
        <mxCell id="FLL2FGJzJw59sxhkrGi6-14" value="Realizar pesquisa com concorrentes para entender o mercado" style="whiteSpace=wrap;html=1;rounded=1;" vertex="1" parent="1">
          <mxGeometry x="590" y="367.5" width="120" height="60" as="geometry" />
        </mxCell>
        <mxCell id="FLL2FGJzJw59sxhkrGi6-20" value="" style="edgeStyle=orthogonalEdgeStyle;rounded=0;orthogonalLoop=1;jettySize=auto;html=1;" edge="1" parent="1" source="FLL2FGJzJw59sxhkrGi6-17" target="FLL2FGJzJw59sxhkrGi6-19">
          <mxGeometry relative="1" as="geometry" />
        </mxCell>
        <mxCell id="FLL2FGJzJw59sxhkrGi6-17" value="Calcular margem com base na média de preço" style="whiteSpace=wrap;html=1;rounded=1;" vertex="1" parent="1">
          <mxGeometry x="790" y="367.5" width="120" height="60" as="geometry" />
        </mxCell>
        <mxCell id="FLL2FGJzJw59sxhkrGi6-24" style="edgeStyle=orthogonalEdgeStyle;rounded=0;orthogonalLoop=1;jettySize=auto;html=1;entryX=0;entryY=0.5;entryDx=0;entryDy=0;" edge="1" parent="1" source="FLL2FGJzJw59sxhkrGi6-19" target="FLL2FGJzJw59sxhkrGi6-23">
          <mxGeometry relative="1" as="geometry" />
        </mxCell>
        <mxCell id="FLL2FGJzJw59sxhkrGi6-19" value="Cadastrar preço na plataforma" style="whiteSpace=wrap;html=1;rounded=1;" vertex="1" parent="1">
          <mxGeometry x="990" y="367.5" width="120" height="60" as="geometry" />
        </mxCell>
        <mxCell id="FLL2FGJzJw59sxhkrGi6-21" value="" style="ellipse;whiteSpace=wrap;html=1;rounded=1;fillColor=#a20025;fontColor=#ffffff;strokeColor=#6F0000;" vertex="1" parent="1">
          <mxGeometry x="590" y="561.25" width="40" height="42.5" as="geometry" />
        </mxCell>
        <mxCell id="FLL2FGJzJw59sxhkrGi6-23" value="" style="ellipse;whiteSpace=wrap;html=1;rounded=1;fillColor=#a20025;fontColor=#ffffff;strokeColor=#6F0000;" vertex="1" parent="1">
          <mxGeometry x="1170" y="376.25" width="40" height="42.5" as="geometry" />
        </mxCell>
        <mxCell id="FLL2FGJzJw59sxhkrGi6-25" value="Fim" style="text;html=1;align=center;verticalAlign=middle;whiteSpace=wrap;rounded=0;" vertex="1" parent="1">
          <mxGeometry x="580" y="603.75" width="60" height="30" as="geometry" />
        </mxCell>
        <mxCell id="FLL2FGJzJw59sxhkrGi6-26" value="Fim" style="text;html=1;align=center;verticalAlign=middle;whiteSpace=wrap;rounded=0;" vertex="1" parent="1">
          <mxGeometry x="1160" y="420" width="60" height="30" as="geometry" />
        </mxCell>
      </root>
    </mxGraphModel>
  </diagram>
</mxfile>
